Coordinates
version=1
nRows=29
nColumns=24
inDegrees=yes

Units are S.I. units (second, meters, Newtons, ...)
Angles are in degrees.

endheader
time	pelvis_tilt	pelvis_list	pelvis_rotation	pelvis_tx	pelvis_ty	pelvis_tz	hip_flexion_r	hip_adduction_r	hip_rotation_r	knee_angle_r	ankle_angle_r	subtalar_angle_r	mtp_angle_r	hip_flexion_l	hip_adduction_l	hip_rotation_l	knee_angle_l	ankle_angle_l	subtalar_angle_l	mtp_angle_l	lumbar_extension	lumbar_bending	lumbar_rotation
      0.46300000	     -1.64576815	      0.65740527	      4.21107098	     -0.75766085	      0.88821463	      0.31715112	     32.22428933	      0.60872558	     -3.95966249	    -20.48936007	      2.85256929	     -0.18931724	      0.22701297	    -15.56358915	      1.95443165	      1.73478138	     -5.69002541	     19.15447762	     -1.22313011	      0.76156032	     -8.48564945	     -1.38412189	     -9.43019720
      0.46716667	     -1.78322725	      0.69286676	      4.27254070	     -0.75201879	      0.88681321	      0.31744872	     32.34208657	      0.67429326	     -3.55363577	    -20.54907105	      2.77649461	     -0.62798052	      0.29575173	    -15.39104077	      1.93039599	      1.66952918	     -6.57543970	     19.55333533	     -0.93323884	      0.97186665	     -8.29785154	     -1.41478382	     -9.38276877
      0.47133333	     -1.86874433	      0.71050531	      4.32566914	     -0.74632202	      0.88550035	      0.31774709	     32.41883109	      0.75660781	     -3.21424643	    -20.73859346	      2.77222652	     -0.98072095	      0.36605461	    -15.27819273	      1.88402184	      1.60728689	     -7.45978333	     19.91531075	     -0.64206302	      1.20832317	     -8.18460944	     -1.39111187	     -9.32388074
      0.47550000	     -1.95690829	      0.72079068	      4.37734805	     -0.74058206	      0.88423680	      0.31806883	     32.49549661	      0.85008240	     -2.89678317	    -21.00610661	      2.73542928	     -1.34046590	      0.43398986	    -15.14322624	      1.82978353	      1.56223800	     -8.38213454	     20.21274407	     -0.40391359	      1.46208609	     -8.05878669	     -1.36022807	     -9.25485180
      0.47966667	     -2.04512530	      0.72313800	      4.42280740	     -0.73481138	      0.88301427	      0.31841588	     32.57484899	      0.95802286	     -2.59458822	    -21.35509242	      2.67007249	     -1.71348393	      0.50000430	    -14.98970160	      1.76717619	      1.51567816	     -9.34569129	     20.47239250	     -0.17754545	      1.73100788	     -7.93016008	     -1.32035563	     -9.16848301
      0.48383333	     -2.09003210	      0.69292595	      4.44230436	     -0.72898185	      0.88189560	      0.31884420	     32.59408117	      1.12429784	     -2.27736125	    -21.74304055	      2.60076361	     -2.07695957	      0.63550228	    -14.82988766	      1.65593284	      1.28933139	    -10.42543862	     20.78962188	      0.28118085	      2.30914182	     -7.84942172	     -1.24300815	     -9.08023177
      0.48800000	     -2.19494016	      0.69983117	      4.50175450	     -0.72317475	      0.88076592	      0.31919434	     32.70411162	      1.22082738	     -2.04338202	    -22.25391052	      2.50792828	     -2.43782431	      0.67075579	    -14.63225955	      1.60978247	      1.44646483	    -11.43586145	     20.91449043	      0.21719013	      2.48515608	     -7.70757495	     -1.20774910	     -8.97761984
      0.49216667	     -2.30023821	      0.69632777	      4.53693671	     -0.71733614	      0.87967914	      0.31960625	     32.81066452	      1.34746794	     -1.78705103	    -22.80262735	      2.38527984	     -2.83089764	      0.71224617	    -14.37969231	      1.54886614	      1.45903508	    -12.56639261	     21.01543632	      0.28849194	      2.69955507	     -7.54035676	     -1.16568630	     -8.85453866
      0.49633333	     -2.35887416	      0.59927337	      4.56291598	     -0.71138145	      0.87873784	      0.32008280	     32.82805510	      1.57891745	     -1.58281912	    -23.31010567	      2.15758977	     -3.23563084	      1.62769094	    -14.10926146	      1.35122915	      1.19115418	    -13.82160176	     21.04020438	      0.63383451	      7.62047073	     -7.40430408	     -0.98931484	     -8.79074286
      0.50050000	     -2.34618412	      0.49223756	      4.50589520	     -0.70534271	      0.87773916	      0.32062813	     32.82652672	      1.86478298	     -1.35025378	    -23.97939735	      2.07503638	     -3.66673787	      1.61802560	    -14.23645659	      1.19992145	      1.10921171	    -14.53365607	     20.95615085	      0.64993370	      7.66068135	     -7.35411103	     -0.83247239	     -8.49352715
      0.50466667	     -2.42969937	      0.46786655	      4.51596502	     -0.69942318	      0.87688320	      0.32111498	     32.91739273	      2.02645359	     -1.15321510	    -24.66461125	      1.96689651	     -3.99798954	      1.61575108	    -13.91772723	      1.11448185	      1.09360508	    -15.83721993	     20.85905420	      0.70842042	      7.75652688	     -7.21329462	     -0.76264430	     -8.33119553
      0.50883333	     -2.47508846	      0.40287682	      4.51178370	     -0.69345773	      0.87612517	      0.32166408	     32.96217245	      2.24400274	     -0.96652392	    -25.36714990	      1.90509027	     -4.37062927	      1.62523368	    -13.59433991	      0.96688298	      0.95328450	    -17.23702843	     20.78181966	      0.94016915	      8.10514283	     -7.10935561	     -0.63580050	     -8.13274317
      0.51300000	     -2.55661312	      0.37107176	      4.51921040	     -0.68752166	      0.87540752	      0.32216797	     33.05751518	      2.41254247	     -0.80016849	    -26.12094766	      1.89301697	     -4.67812184	      1.63024851	    -13.21803144	      0.88521482	      1.01227413	    -18.64772417	     20.55042102	      0.83038496	      8.23416762	     -6.96640748	     -0.55294968	     -7.98161060
      0.51716667	     -2.63077397	      0.32861884	      4.50709656	     -0.68157260	      0.87474892	      0.32271048	     33.15160527	      2.59892048	     -0.64621335	    -26.90455637	      1.90862842	     -4.96597556	      1.63751675	    -12.80387493	      0.78498452	      0.97219708	    -20.14345108	     20.24827636	      0.82340272	      8.41772293	     -6.82538250	     -0.45675494	     -7.79212958
      0.52133333	     -2.68598633	      0.26658980	      4.49001846	     -0.67561456	      0.87418419	      0.32326819	     33.21952172	      2.80500346	     -0.51508109	    -27.69251928	      1.97762222	     -5.22350621	      1.64601643	    -12.36671656	      0.65824715	      0.89635468	    -21.71182733	     19.88900217	      0.84105423	      8.65362070	     -6.70867108	     -0.33543499	     -7.58962812
      0.52550000	     -2.68034920	      0.16406106	      4.45584625	     -0.66963757	      0.87377022	      0.32390334	     33.20128587	      3.07201374	     -0.37636731	    -28.44260429	      2.00979797	     -5.58648963	      1.68339617	    -11.94408618	      0.45788827	      0.67430253	    -23.35963519	     19.41218563	      0.90224384	     14.55447994	     -6.66360548	     -0.17959357	     -7.41039457
      0.52966667	     -2.71133622	      0.08177528	      4.43578663	     -0.66367043	      0.87338179	      0.32443321	     33.23406757	      3.28216127	     -0.30830106	    -29.24404749	      2.26388242	     -5.66582867	      1.69069883	    -11.46944310	      0.31403048	      0.61778402	    -25.02168304	     18.84864477	      0.80318010	     14.59782946	     -6.57154618	     -0.00899693	     -7.19974880
      0.53383333	     -2.73334359	      0.00437448	      4.40124983	     -0.65775078	      0.87303867	      0.32500614	     33.25890577	      3.49326687	     -0.24083298	    -30.04671637	      2.48331024	     -5.79056508	      1.68997683	    -10.94499668	      0.16291325	      0.47699626	    -26.79009305	     18.29369100	      0.77565780	     14.72392306	     -6.49520159	      0.11291181	     -6.95835904
      0.53800000	     -2.72945181	     -0.11312415	      4.36550259	     -0.65181669	      0.87280407	      0.32558514	     33.22605336	      3.74512999	     -0.18547047	    -30.79612818	      2.77563842	     -5.90128618	      1.68526418	    -10.41642106	     -0.04024627	      0.31079949	    -28.60283841	     17.63122158	      0.72675433	     14.89648383	     -6.44570516	      0.30512675	     -6.74013755
      0.54216667	     -2.68818351	     -0.25670967	      4.32508460	     -0.64586587	      0.87270805	      0.32615657	     33.12423914	      4.02466361	     -0.13584899	    -31.49948777	      3.14891607	     -5.99484759	      1.68414543	     -9.90933947	     -0.27159518	      0.15610556	    -30.42326668	     16.84463831	      0.62111593	     15.03507912	     -6.44761572	      0.56229626	     -6.56160183
      0.54633333	     -2.66726695	     -0.40007656	      4.28370217	     -0.63996982	      0.87259108	      0.32674621	     33.04420258	      4.28833703	     -0.14009277	    -32.19388237	      3.49593150	     -6.02664020	      1.66425439	     -9.31338439	     -0.52936068	     -0.10240904	    -32.35831652	     16.11308062	      0.61398770	     15.31984577	     -6.41031531	      0.75763828	     -6.29704784
      0.55050000	     -2.57856821	     -0.57593556	      4.23730144	     -0.63404183	      0.87268795	      0.32731470	     32.83936839	      4.59482190	     -0.12057878	    -32.79907628	      3.94569997	     -6.08193975	      1.65872242	     -8.79899581	     -0.81143705	     -0.29440633	    -34.24488790	     15.18327248	      0.45561433	     15.47427217	     -6.47236906	      1.05903750	     -6.13670069
      0.55466667	     -2.50282563	     -0.79203016	      4.18209651	     -0.62814816	      0.87276058	      0.32795834	     32.62939017	      4.94420138	     -0.12753095	    -33.34951120	      4.35622113	     -6.17143144	      0.91464002	     -8.20121459	     -1.18886375	     -0.65475652	    -36.23671703	     14.26519335	      0.37357209	     20.98600133	     -6.49892693	      1.35943691	     -5.84766054
      0.55883333	     -2.39451972	     -0.98625437	      4.13992395	     -0.62228133	      0.87299252	      0.32850407	     32.35387434	      5.24628755	     -0.17424085	    -33.85069488	      4.84166991	     -6.10994215	      0.93315417	     -7.64474926	     -1.51420308	     -0.88667962	    -38.18135952	     13.21767322	      0.20002983	     20.98594649	     -6.58706636	      1.65712277	     -5.70285505
      0.56300000	     -2.29015318	     -1.20718815	      4.09010884	     -0.61643486	      0.87324634	      0.32908502	     32.05513784	      5.57629929	     -0.23032605	    -34.28977943	      5.33191475	     -6.04634502	      0.94809150	     -7.04872605	     -1.89097306	     -1.17750284	    -40.16871355	     12.19515138	      0.03897909	     20.99082000	     -6.65751430	      1.97823333	     -5.51381204
      0.56716667	     -2.17491932	     -1.45642623	      4.03777702	     -0.61061216	      0.87356138	      0.32967663	     31.71167290	      5.92836958	     -0.32207721	    -34.65130156	      5.79132712	     -5.95356456	      0.95475046	     -6.42969245	     -2.32685205	     -1.52965033	    -42.18408263	     11.17638790	     -0.07263365	     21.00639271	     -6.73854285	      2.32752551	     -5.25259648
      0.57133333	     -2.04543899	     -1.69287304	      3.98442930	     -0.60482397	      0.87398186	      0.33026281	     31.31079472	      6.27168013	     -0.38169595	    -34.93289218	      6.29215929	     -5.89723169	      0.96236748	     -5.81974980	     -2.74612549	     -1.84552430	    -44.16615114	     10.08377188	     -0.27493917	     21.00029157	     -6.85642746	      2.67148838	     -5.06016722
      0.57550000	     -1.90921502	     -1.94947330	      3.93013616	     -0.59906378	      0.87445438	      0.33086611	     30.87442717	      6.63135356	     -0.46641011	    -35.14857148	      6.77306101	     -5.80949077	      0.96751499	     -5.19472418	     -3.20760719	     -2.18540632	    -46.14609504	      8.98958068	     -0.47773530	     20.97584298	     -6.97210383	      3.03060795	     -4.84786935
      0.57966667	     -1.76721443	     -2.21283294	      3.87841790	     -0.59334151	      0.87499740	      0.33147521	     30.39983929	      6.99551960	     -0.55171991	    -35.29564031	      7.24472881	     -5.70904898	      0.97146606	     -4.55830494	     -3.68905355	     -2.52141776	    -48.11036007	      7.90130610	     -0.70358858	     20.92640771	     -7.09940477	      3.39172711	     -4.63200286
